<?xml version="1.0" standalone="no"?>
<!DOCTYPE svg PUBLIC "-//W3C//DTD SVG 20010904//EN"
 "http://www.w3.org/TR/2001/REC-SVG-20010904/DTD/svg10.dtd">
<svg version="1.0" xmlns="http://www.w3.org/2000/svg"
 width="512.000000pt" height="512.000000pt" viewBox="0 0 512.000000 512.000000"
 preserveAspectRatio="xMidYMid meet">

<g transform="translate(0.000000,512.000000) scale(0.100000,-0.100000)"
fill="#000000" stroke="none">
<path d="M612 5100 c-109 -29 -187 -74 -272 -160 -87 -86 -131 -163 -160 -276
-20 -75 -20 -117 -20 -1704 0 -1587 0 -1629 20 -1704 29 -113 73 -190 160
-276 86 -87 163 -131 276 -160 75 -19 115 -20 1344 -20 1229 0 1269 1 1344 20
113 29 190 73 276 160 87 86 131 163 160 276 19 75 20 116 20 1498 0 1574 3
1494 -66 1636 -34 69 -59 97 -313 351 -254 254 -282 279 -351 313 -140 68 -99
66 -1280 65 -1016 0 -1068 -1 -1138 -19z m2213 -391 c33 -9 81 -52 277 -247
201 -201 238 -243 247 -279 8 -29 11 -450 9 -1445 l-3 -1404 -27 -41 c-15 -22
-44 -51 -65 -64 l-38 -24 -1266 0 -1265 0 -41 27 c-22 15 -51 44 -64 65 l-24
38 -3 1603 c-1 1111 1 1616 8 1644 13 48 77 114 122 127 49 14 2082 14 2133 0z"/>
<path d="M1092 3909 c-47 -14 -109 -79 -123 -131 -23 -89 12 -182 88 -229 l38
-24 866 0 865 0 41 27 c62 41 88 90 88 168 0 78 -26 127 -88 168 l-41 27 -850
2 c-519 1 -864 -2 -884 -8z"/>
<path d="M1092 3109 c-47 -14 -109 -79 -123 -131 -23 -89 12 -182 88 -229 l38
-24 866 0 865 0 41 27 c62 41 88 90 88 168 0 78 -26 127 -88 168 l-41 27 -850
2 c-519 1 -864 -2 -884 -8z"/>
<path d="M1092 2309 c-47 -14 -109 -80 -123 -131 -23 -89 12 -182 88 -229 l38
-24 465 0 465 0 38 24 c21 13 50 42 65 64 23 34 27 52 27 107 0 55 -4 73 -27
107 -15 22 -44 51 -65 64 l-38 24 -450 2 c-267 1 -463 -2 -483 -8z"/>
<path d="M4301 4075 c-109 -34 -169 -159 -125 -263 9 -23 82 -104 188 -212
143 -144 176 -183 185 -217 8 -30 11 -435 9 -1445 l-3 -1404 -27 -41 c-15 -22
-44 -51 -65 -64 l-38 -24 -1266 -5 -1265 -5 -41 -27 c-62 -41 -88 -90 -88
-168 0 -78 26 -127 88 -168 l41 -27 1260 -3 c1405 -3 1335 -6 1479 65 51 26
94 58 147 112 87 87 131 164 160 277 19 75 20 116 20 1498 0 1575 3 1494 -66
1636 -33 66 -60 99 -233 273 -174 176 -201 199 -245 212 -58 18 -58 18 -115 0z"/>
</g>
</svg>
