<?xml version="1.0" standalone="no"?>
<!DOCTYPE svg PUBLIC "-//W3C//DTD SVG 20010904//EN"
 "http://www.w3.org/TR/2001/REC-SVG-20010904/DTD/svg10.dtd">
<svg version="1.0" xmlns="http://www.w3.org/2000/svg"
 width="64.000000pt" height="64.000000pt" viewBox="0 0 64.000000 64.000000"
 preserveAspectRatio="xMidYMid meet">

<g transform="translate(0.000000,64.000000) scale(0.100000,-0.100000)"
fill="#000000" stroke="none">
<path d="M62 577 c-12 -13 -22 -33 -22 -45 0 -31 35 -62 68 -62 57 0 83 69 42
110 -27 27 -62 25 -88 -3z m79 -28 c9 -18 7 -25 -9 -41 -16 -16 -23 -18 -41
-9 -20 11 -29 50 -14 64 14 15 53 6 64 -14z"/>
<path d="M288 589 c-47 -27 -42 -103 8 -115 81 -20 127 77 54 116 -23 12 -40
12 -62 -1z m62 -34 c14 -17 5 -51 -16 -59 -22 -8 -54 11 -54 32 0 38 46 56 70
27z"/>
<path d="M490 580 c-43 -43 -14 -110 48 -110 57 0 82 68 39 108 -29 27 -61 28
-87 2z m78 -42 c5 -39 -33 -58 -60 -30 -17 16 -18 23 -8 41 17 33 64 25 68
-11z"/>
<path d="M65 365 c-27 -26 -31 -46 -15 -75 17 -32 48 -43 81 -30 50 21 52 96
4 118 -36 17 -43 15 -70 -13z m75 -25 c22 -40 -26 -80 -58 -48 -25 25 -6 68
30 68 9 0 22 -9 28 -20z"/>
<path d="M292 380 c-49 -20 -48 -101 3 -120 55 -21 106 30 85 85 -7 19 -50 49
-63 44 -1 0 -12 -4 -25 -9z m58 -35 c26 -32 -13 -81 -47 -59 -23 14 -28 41
-13 59 16 19 44 19 60 0z"/>
<path d="M502 378 c-45 -22 -41 -98 7 -118 33 -13 64 -2 81 30 16 29 12 49
-15 75 -26 27 -38 29 -73 13z m62 -40 c8 -13 8 -23 0 -35 -16 -26 -51 -28 -64
-4 -25 47 36 83 64 39z"/>
<path d="M276 155 c-24 -25 -29 -54 -12 -80 30 -45 91 -42 116 6 31 57 -57
121 -104 74z m68 -18 c36 -26 -4 -84 -41 -61 -24 15 -27 38 -8 58 20 19 26 20
49 3z"/>
</g>
</svg>
