<?xml version="1.0" standalone="no"?>
<!DOCTYPE svg PUBLIC "-//W3C//DTD SVG 20010904//EN"
 "http://www.w3.org/TR/2001/REC-SVG-20010904/DTD/svg10.dtd">
<svg version="1.0" xmlns="http://www.w3.org/2000/svg"
 width="512.000000pt" height="512.000000pt" viewBox="0 0 512.000000 512.000000"
 preserveAspectRatio="xMidYMid meet">

<g transform="translate(0.000000,512.000000) scale(0.100000,-0.100000)"
fill="#000000" stroke="none">
<path d="M2620 4844 c-403 -33 -614 -143 -741 -387 -79 -151 -111 -346 -113
-684 -1 -190 0 -203 20 -230 72 -98 195 -98 268 0 19 25 21 48 28 240 20 560
89 673 439 729 120 19 1446 19 1569 0 287 -44 378 -135 422 -422 19 -124 19
-2936 0 -3060 -44 -287 -135 -378 -422 -422 -123 -19 -1449 -19 -1569 0 -350
56 -419 169 -439 729 -7 192 -9 215 -28 240 -73 98 -196 98 -268 0 -20 -27
-21 -40 -20 -230 1 -111 7 -251 13 -310 46 -424 229 -647 596 -726 166 -36
341 -43 1030 -38 545 3 666 6 749 20 225 38 344 93 463 212 123 125 182 262
215 501 19 145 19 2963 0 3108 -33 239 -92 376 -215 501 -119 119 -238 174
-463 212 -85 14 -198 17 -794 18 -382 1 -715 1 -740 -1z"/>
<path d="M2610 3349 c-87 -35 -128 -149 -81 -226 11 -17 117 -115 236 -217
l216 -186 -1305 -2 -1305 -3 -28 -21 c-98 -73 -98 -195 0 -268 28 -21 29 -21
1329 -26 l1302 -5 -209 -180 c-115 -99 -220 -195 -232 -214 -31 -46 -31 -116
0 -161 50 -75 122 -97 198 -62 53 25 784 652 816 701 31 46 31 116 0 162 -27
41 -757 672 -809 699 -40 22 -88 25 -128 9z"/>
</g>
</svg>
