<?xml version="1.0" standalone="no"?>
<!DOCTYPE svg PUBLIC "-//W3C//DTD SVG 20010904//EN"
 "http://www.w3.org/TR/2001/REC-SVG-20010904/DTD/svg10.dtd">
<svg version="1.0" xmlns="http://www.w3.org/2000/svg"
 width="512.000000pt" height="512.000000pt" viewBox="0 0 512.000000 512.000000"
 preserveAspectRatio="xMidYMid meet">

<g transform="translate(0.000000,512.000000) scale(0.100000,-0.100000)"
fill="#000000" stroke="none">
<path d="M2620 4844 c-403 -33 -614 -143 -741 -387 -79 -151 -111 -346 -113
-684 -1 -190 0 -203 20 -230 72 -98 195 -98 268 0 19 25 21 48 28 240 20 560
89 673 439 729 120 19 1446 19 1569 0 287 -44 378 -135 422 -422 19 -124 19
-2936 0 -3060 -44 -287 -135 -378 -422 -422 -123 -19 -1449 -19 -1569 0 -350
56 -419 169 -439 729 -7 192 -9 215 -28 240 -73 98 -196 98 -268 0 -20 -27
-21 -40 -20 -230 1 -111 7 -251 13 -310 46 -424 229 -647 596 -726 166 -36
341 -43 1030 -38 545 3 666 6 749 20 225 38 344 93 463 212 123 125 182 262
215 501 19 145 19 2963 0 3108 -33 239 -92 376 -215 501 -119 119 -238 174
-463 212 -85 14 -198 17 -794 18 -382 1 -715 1 -740 -1z"/>
<path d="M1104 3343 c-53 -30 -794 -673 -815 -706 -25 -42 -25 -112 0 -154 23
-37 767 -680 819 -707 132 -69 283 101 199 225 -12 19 -117 115 -232 214
l-209 180 1197 5 c1188 5 1196 5 1223 26 53 39 69 71 69 134 0 63 -16 95 -69
134 -27 21 -35 21 -1223 26 l-1197 5 209 180 c115 99 220 195 232 214 45 67
24 160 -49 214 -37 27 -114 32 -154 10z"/>
</g>
</svg>
