<?xml version="1.0" standalone="no"?>
<!DOCTYPE svg PUBLIC "-//W3C//DTD SVG 20010904//EN"
 "http://www.w3.org/TR/2001/REC-SVG-20010904/DTD/svg10.dtd">
<svg version="1.0" xmlns="http://www.w3.org/2000/svg"
 width="512.000000pt" height="512.000000pt" viewBox="0 0 512.000000 512.000000"
 preserveAspectRatio="xMidYMid meet">

<g transform="translate(0.000000,512.000000) scale(0.100000,-0.100000)"
fill="#000000" stroke="none">
<path d="M2330 5110 c-1172 -121 -2099 -981 -2294 -2131 -36 -207 -45 -534
-20 -705 l6 -40 146 18 c81 11 147 20 148 21 1 1 -3 47 -8 102 -12 125 -4 376
18 515 111 729 562 1353 1217 1684 786 398 1711 305 2417 -242 90 -70 320
-293 320 -311 0 -6 -48 -9 -137 -8 l-138 2 0 -150 0 -150 403 -3 402 -2 0 405
0 406 -147 -3 -148 -3 -3 -146 -3 -147 -117 120 c-401 411 -916 673 -1482 753
-134 19 -458 28 -580 15z"/>
<path d="M2250 3604 c-132 -35 -276 -139 -349 -252 -40 -63 -79 -169 -87 -236
l-6 -53 -67 -7 c-227 -21 -442 -171 -556 -387 -103 -197 -103 -461 0 -658 98
-186 279 -329 475 -375 98 -23 1846 -24 1934 -1 190 50 345 204 401 399 22 74
22 210 0 290 -9 33 -30 87 -48 120 -38 72 -143 182 -207 217 -44 24 -45 26
-52 84 -28 228 -164 425 -361 524 -111 55 -179 71 -312 71 l-110 0 -24 35
c-70 103 -208 197 -336 230 -74 19 -222 18 -295 -1z m252 -300 c96 -32 158
-113 198 -259 12 -44 24 -83 26 -87 2 -3 54 14 115 39 107 43 114 45 198 41
104 -4 176 -34 246 -105 92 -94 119 -200 91 -358 -9 -49 -16 -95 -16 -101 0
-6 39 -19 88 -29 48 -9 108 -28 135 -43 187 -101 166 -390 -34 -466 -40 -15
-123 -16 -939 -14 l-895 3 -66 32 c-321 158 -320 609 0 766 66 32 66 32 261
37 l195 5 5 175 c4 109 11 186 19 205 29 69 99 136 168 161 51 18 150 17 205
-2z"/>
<path d="M4950 2822 l-135 -15 0 -226 c0 -255 -13 -366 -70 -588 -163 -636
-590 -1160 -1185 -1457 -214 -106 -417 -170 -675 -212 -153 -25 -494 -25 -655
0 -455 71 -869 265 -1213 569 -72 64 -247 254 -247 269 0 4 65 8 145 8 l145 0
0 150 0 150 -400 0 -400 0 0 -420 0 -420 150 0 150 0 0 151 0 151 117 -122
c145 -151 270 -256 438 -369 683 -457 1536 -564 2310 -290 158 56 405 181 547
275 162 108 274 203 423 355 205 211 343 407 466 664 141 295 216 563 249 894
17 176 8 492 -15 496 -5 1 -71 -5 -145 -13z"/>
</g>
</svg>
